<svg width="749" height="208" viewBox="0 0 749 208" fill="none" xmlns="http://www.w3.org/2000/svg">
<g clip-path="url(#clip0_121_8565)">
<path d="M51.9443 202.535L47.7523 199.566C45.9456 178.346 39.3688 165.527 35.8275 158.864C39.5857 156.401 45.8009 150.68 45.8009 142.496C45.8009 134.312 39.152 129.967 39.152 119.828C39.152 114.251 41.0311 109.544 44.1389 105.922C42.1151 103.025 39.7302 101.504 36.2611 101.504C32.3584 101.504 28.8171 104.764 28.8171 109.688C28.8171 112.585 30.0457 115.772 32.792 117.148C30.8407 119.828 25.8539 120.118 23.1076 116.062H23.0353C23.0353 125.766 33.2979 132.502 33.2979 142.786C33.2979 149.449 28.0221 155.895 20.3612 155.895C14.6517 155.895 9.30356 153.215 6.55721 147.928C12.7726 149.521 17.2535 147.059 17.2535 141.555C17.2535 131.488 0.558594 121.711 0.558594 104.619C0.558594 91.2205 10.8213 83.7608 22.6017 83.7608C33.2979 83.7608 42.8377 88.6858 49.9929 101.143C53.6786 98.3903 58.1598 96.797 62.7129 95.928C74.9267 93.5381 89.9593 95.7108 101.451 90.7858C106.582 88.6134 110.846 84.7022 110.846 80.2847C110.846 78.1843 109.617 76.8806 107.883 76.8806C107.016 76.8806 105.715 77.3153 104.92 79.1981C102.679 77.2429 101.957 75.1425 101.957 73.1145C101.957 69.6384 103.041 68.0452 104.269 66.3795C103.113 63.4101 99.5718 62.6858 97.1145 65.6553C94.1513 60.1507 95.958 52.5463 103.691 50.2287V50.1563C94.5848 48.6354 92.1998 42.9866 93.2115 36.7581C94.0789 37.4824 95.0187 37.9893 96.0304 37.9893C97.5479 37.9893 98.4153 36.7581 98.4153 35.02C98.4153 33.2094 97.4755 30.3124 92.7781 27.1258C96.8977 20.8974 104.053 19.9559 107.666 22.2734L107.738 22.201C105.932 19.6662 104.992 15.2484 107.883 10.8306C108.606 11.8445 110.268 13.2205 112.798 13.2205C120.386 13.2205 120.675 4.89183 126.457 4.02275C126.096 6.63001 126.818 10.2512 129.998 10.2512C134.19 10.2512 136.141 3.87791 137.226 -0.032959C139.032 0.980968 140.406 2.79155 140.116 6.12303H140.189L142.718 0.980968C144.814 2.79155 145.248 5.7609 144.525 8.44056C144.38 9.16482 144.091 9.67176 144.091 10.0339C144.091 12.0618 150.162 13.5827 150.162 18.0729C150.162 18.7971 149.946 19.6662 149.584 20.5353L163.388 37.9893C164.255 39.0757 164.544 40.2344 164.544 41.2484C164.544 44.8694 161.364 48.7078 156.811 48.7078C152.258 48.7078 150.741 46.2455 150.451 45.087L138.454 39.2205C137.731 40.3793 136.936 42.2623 136.936 44.4351C136.936 57.6884 155.655 58.0508 160.136 75.3597L178.638 69.2037C191.863 82.0951 205.812 94.6242 214.485 99.7664L219.977 106.719H203.427V101.867L198.874 100.635C191.935 89.6996 182.468 83.6884 177.409 82.1675C171.266 85.9336 166.64 89.8444 161.22 95.8556C170.037 95.1313 179.866 96.0004 188.105 97.5936L183.769 134.675L180.228 144.162L170.905 152.129V135.761H175.891L174.518 130.546C178.565 119.683 179.143 112.441 179.143 108.53C179.143 107.299 179.071 106.14 178.71 105.778C178.348 105.416 176.903 105.778 175.674 106.14C172.35 107.081 166.857 109.688 159.847 115.338C153.487 120.552 150.09 122.869 141.49 121.928C131.805 131.995 111.352 136.775 93.4287 136.557C92.0555 151.115 75.9384 159.516 75.9384 166.468C75.9384 168.931 78.3237 172.987 83.4551 180.736C89.2367 189.354 94.6571 197.683 101.451 200.363L107.232 207.388H90.6099L90.4651 202.39L85.7676 199.783C80.3472 189.716 71.8915 178.708 60.3276 168.352C63.1464 162.702 64.664 156.909 64.7363 151.477C59.5326 159.371 51.872 159.443 50.4987 165.454C49.9929 167.7 50.282 172.045 51.5105 177.694C53.3176 186.24 54.9075 196.38 62.7849 200.29L68.2778 207.46H51.9443V202.535Z" fill="black"/>
<path d="M23.324 88.4683C26.7931 88.4683 31.6353 89.2649 35.0321 92.4519C27.0099 88.7582 15.0127 91.2206 14.1454 100.925C12.7722 99.4045 12.3386 97.5937 12.194 96.0004C9.23086 97.3765 6.99045 101.504 6.41226 105.995C4.02728 95.3485 12.6277 88.4683 23.324 88.4683ZM67.8436 99.9836C78.9737 98.6079 94.151 99.8388 106.582 93.6829C112.364 90.7858 118.29 85.9336 118.29 79.4157C118.29 71.5213 108.605 63.772 108.605 46.9698C108.605 36.0339 113.448 23.4323 126.24 16.552C118.145 23.5771 114.243 31.6161 114.243 41.4657C114.243 51.3153 118.073 61.6717 131.082 66.8138C140.26 70.4351 148.861 70.5799 152.547 78.2567C149.295 75.6497 145.103 74.7807 142.212 74.7807C123.494 74.7807 116.483 109.833 94.5121 119.755C99.1376 107.588 85.1168 103.677 72.18 103.967C61.6282 104.184 45.4395 107.081 45.2947 123.811C42.2592 112.658 48.6914 102.374 67.8436 99.9836ZM154.354 43.2038C154.354 42.19 154.932 40.5242 154.932 39.1481C154.932 38.4239 154.787 37.4824 153.848 36.0339C152.547 34.0061 150.017 30.5297 147.56 27.9225C144.308 24.5186 141.489 23.5047 137.153 23.8668C140.694 21.9114 141.561 20.0284 141.561 18.0005C141.561 16.1899 140.55 14.3069 138.96 12.4963C141.272 12.9308 147.416 15.4657 147.416 18.7972C147.416 19.5214 147.054 20.1008 146.404 20.825L161.219 39.3654C160.714 40.1621 159.557 39.8 158.545 39.8C157.895 39.8 157.534 40.2345 157.534 40.8863C157.534 42.1176 158.545 43.7109 159.124 44.5799C158.69 44.8694 157.823 45.2318 156.883 45.2318C155.655 45.1594 154.354 44.7246 154.354 43.2038Z" fill="#006A4A"/>
<path d="M251.127 127.432V58.1955C251.127 54.3571 250.188 49.8668 248.887 44.3627H271.146C269.846 49.8668 268.906 54.2847 268.906 58.1955V125.477H293.262C301.429 125.477 306.56 125.115 311.981 123.594L306.488 141.265H248.887C250.188 135.688 251.127 131.27 251.127 127.432Z" fill="black"/>
<path d="M322.967 127.432V58.1955C322.967 54.3571 322.027 49.8668 320.727 44.3627H342.986C341.685 49.8668 340.746 54.2847 340.746 58.1955V125.477H365.102C373.269 125.477 378.4 125.115 383.82 123.594L378.328 141.265H320.727C322.027 135.688 322.967 131.27 322.967 127.432Z" fill="black"/>
<path d="M386.203 92.7414C386.203 65.0758 406.439 43.059 435.564 43.059C464.693 43.059 484.927 65.0034 484.927 92.7414C484.927 120.479 464.693 142.424 435.564 142.424C406.439 142.424 386.203 120.479 386.203 92.7414ZM467.002 92.7414C467.002 72.7526 455.15 58.9922 435.564 58.9922C415.979 58.9922 404.126 72.825 404.126 92.7414C404.126 112.658 415.979 126.491 435.564 126.491C455.15 126.491 467.002 112.73 467.002 92.7414Z" fill="black"/>
<path d="M520.343 105.343C505.525 90.2067 492.662 69.6384 486.156 44.2903H506.611C506.898 48.6354 507.697 52.619 509.357 57.3265C513.983 70.6522 521.067 81.8056 529.158 91.2205C537.47 82.1675 545.203 70.6522 549.829 57.3265C551.493 52.6914 552.213 48.6354 552.575 44.2903H572.381C565.874 69.566 553.012 90.2067 538.194 105.343V141.192H520.414L520.343 105.343Z" fill="black"/>
<path d="M586.762 127.432V58.1955C586.762 54.3571 585.822 49.8668 584.52 44.3627H617.188C648.192 44.3627 667.778 64.2067 667.778 92.8138C667.778 121.421 648.192 141.265 617.188 141.265H584.52C585.892 135.688 586.762 131.27 586.762 127.432ZM649.782 92.7414C649.782 71.7384 637.859 60.1507 615.961 60.1507H604.542V125.404H615.961C637.859 125.404 649.782 113.816 649.782 92.7414Z" fill="black"/>
<path d="M679.92 135.761L679.628 116.352C691.917 124.318 700.083 127.939 709.693 127.939C720.534 127.939 727.548 123.666 727.548 115.917C727.548 110.775 724.581 106.791 714.826 102.808L699.289 96.5799C684.978 90.8582 678.547 82.8918 678.547 70.5075C678.547 53.7052 691.626 43.1313 711.719 43.1313C722.268 43.1313 732.173 46.4627 737.881 49.2149V67.8276C727.04 60.5855 719.02 57.6884 710.849 57.6884C700.732 57.6884 695.674 61.6716 695.674 67.8276C695.674 73.9112 698.852 77.0254 706.515 80.2123L726.029 88.1787C737.373 92.7414 744.82 101.07 744.82 113.744C744.82 130.329 731.882 142.569 708.898 142.569C696.83 142.424 686.351 138.585 679.92 135.761Z" fill="black"/>
<path d="M251.199 201.449V171.031C251.199 169.365 250.766 167.41 250.188 164.947H267.027C275.122 164.947 280.036 169.148 280.036 175.666C280.036 179.65 277.94 183.271 274.11 185.371C278.735 187.037 281.409 190.73 281.409 195.293C281.409 202.535 276.495 207.46 267.099 207.46H250.26C250.838 205.143 251.199 203.187 251.199 201.449ZM266.015 182.836C270.207 182.836 272.23 180.591 272.23 177.115C272.23 173.711 269.918 171.683 266.232 171.683H259.005V182.836H266.015ZM273.604 195.003C273.604 191.31 270.93 189.209 266.882 189.209H259.005V200.797H267.244C271.436 200.797 273.604 198.697 273.604 195.003Z" fill="black"/>
<path d="M287.696 200.725L299.909 164.947H310.317L322.531 200.725C323.326 203.115 324.121 205.07 325.277 207.532H315.448C315.304 205.07 314.942 203.115 314.364 201.449L313.063 197.321H296.946L295.645 201.449C295.067 203.115 294.634 205.07 294.561 207.532H284.949C286.106 205.07 286.901 203.187 287.696 200.725ZM310.895 190.803L304.969 172.335L299.042 190.803H310.895Z" fill="black"/>
<path d="M331.278 201.449V171.031C331.278 169.365 330.844 167.41 330.266 164.947H340.673L358.091 195.221V170.959C358.091 169.293 357.657 167.337 357.079 164.875H366.402C365.824 167.265 365.39 169.221 365.39 170.959V200.29C365.39 202.535 365.39 204.201 365.535 207.46H356.501L338.577 176.246V201.449C338.577 203.115 339.011 205.07 339.589 207.532H330.266C330.844 205.143 331.278 203.187 331.278 201.449Z" fill="black"/>
<path d="M396.176 201.232L384.323 185.443V201.521C384.323 203.187 384.757 205.143 385.335 207.605H375.578C376.156 205.215 376.59 203.259 376.59 201.521V171.103C376.59 169.438 376.156 167.482 375.578 165.02H385.335C384.757 167.41 384.323 169.365 384.323 171.103V184.647L395.742 171.393C397.838 168.931 398.561 167.7 400.223 165.02H409.98C407.523 167.7 406.439 169.003 404.632 171.176L393.14 184.719L405.716 201.521C407.378 203.766 408.534 205.143 410.775 207.532H400.585C398.922 204.925 398.127 203.766 396.176 201.232Z" fill="black"/>
<path d="M415.691 201.449V171.031C415.691 169.365 415.258 167.41 414.68 164.947H424.438C423.86 167.338 423.423 169.293 423.423 171.031V201.449C423.423 203.115 423.86 205.07 424.438 207.532H414.68C415.33 205.143 415.691 203.187 415.691 201.449Z" fill="black"/>
<path d="M434.554 201.449V171.031C434.554 169.365 434.121 167.41 433.543 164.947H443.947L461.365 195.221V170.959C461.365 169.293 460.932 167.337 460.354 164.875H469.677C469.098 167.265 468.666 169.221 468.666 170.959V200.29C468.666 202.535 468.666 204.201 468.811 207.46H459.851L441.925 176.246V201.449C441.925 203.115 442.358 205.07 442.936 207.532H433.614C434.121 205.143 434.554 203.187 434.554 201.449Z" fill="black"/>
<path d="M476.762 186.602C476.762 174.145 485.652 164.441 499.887 164.441C505.091 164.441 509.572 165.816 512.97 167.627V175.956C507.912 172.552 503.864 171.321 499.742 171.321C490.203 171.321 484.711 177.477 484.711 186.312C484.711 195.076 489.916 201.159 498.66 201.159C504.729 201.159 509.285 198.262 510.004 191.092H504.442C500.827 191.092 498.876 191.092 496.418 191.237L498.66 184.574H517.596V186.819C517.596 204.998 505.74 208.112 498.298 208.112C485.215 208.04 476.762 198.769 476.762 186.602Z" fill="black"/>
<path d="M534.723 186.602C534.723 174.145 543.613 164.441 557.852 164.441C563.052 164.441 567.537 165.816 570.931 167.627V175.956C565.873 172.552 561.825 171.321 557.707 171.321C548.168 171.321 542.672 177.477 542.672 186.312C542.672 195.076 547.877 201.159 556.621 201.159C562.694 201.159 567.246 198.262 567.969 191.092H562.403C558.788 191.092 556.912 191.092 554.383 191.237L556.621 184.574H575.557V186.819C575.557 204.998 563.705 208.112 556.259 208.112C543.18 208.04 534.723 198.769 534.723 186.602Z" fill="black"/>
<path d="M583.87 201.449V171.031C583.87 169.365 583.438 167.41 582.859 164.947H598.9C608.298 164.947 613.14 169.945 613.14 177.26C613.14 183.416 609.816 187.761 603.239 189.065L612.632 201.521C614.296 203.766 615.524 205.143 617.837 207.532H607.649C606.056 204.925 605.12 203.766 603.239 201.232L594.711 189.572H591.604V201.521C591.604 203.187 592.036 205.143 592.615 207.605H582.859C583.508 205.143 583.87 203.187 583.87 201.449ZM598.975 183.198C603.164 183.198 605.336 181.098 605.336 177.549C605.336 174 603.164 171.9 598.975 171.9H591.674V183.198H598.975Z" fill="black"/>
<path d="M619.281 186.24C619.281 174.073 628.171 164.441 640.963 164.441C653.755 164.441 662.645 174.073 662.645 186.24C662.645 198.407 653.755 208.04 640.963 208.04C628.171 208.04 619.281 198.407 619.281 186.24ZM654.766 186.24C654.766 177.477 649.562 171.393 640.963 171.393C632.36 171.393 627.156 177.477 627.156 186.24C627.156 195.003 632.36 201.087 640.963 201.087C649.562 201.087 654.766 195.003 654.766 186.24Z" fill="black"/>
<path d="M670.452 192.758V171.031C670.452 169.365 670.02 167.41 669.441 164.947H679.197C678.618 167.338 678.186 169.293 678.186 171.031V191.962C678.186 198.262 681.655 201.015 687.292 201.015C692.929 201.015 696.398 198.262 696.398 191.962V171.031C696.398 169.365 695.966 167.41 695.387 164.947H704.997C704.419 167.338 703.986 169.293 703.986 171.031V192.758C703.986 202.97 697.48 208.112 687.146 208.112C676.954 208.04 670.452 202.97 670.452 192.758Z" fill="black"/>
<path d="M714.464 201.449V171.031C714.464 169.365 714.031 167.41 713.453 164.947H729.498C738.892 164.947 743.734 169.945 743.734 177.839C743.734 185.733 738.892 190.73 729.498 190.73H722.197V201.449C722.197 203.115 722.63 205.07 723.208 207.532H713.453C714.031 205.143 714.464 203.187 714.464 201.449ZM729.569 183.995C733.762 183.995 735.93 181.895 735.93 177.984C735.93 174.073 733.762 171.973 729.569 171.973H722.268V183.995H729.569Z" fill="black"/>
</g>
<defs>
<clipPath id="clip0_121_8565">
<rect width="748.8" height="208" fill="white"/>
</clipPath>
</defs>
</svg>